<svg xmlns="http://www.w3.org/2000/svg" style="display: none;">
  
    <symbol id="icon-vkontakte" viewBox="0 0 512 512">
      <path d="m529 149c5 12-9 40-42 84-5 6-11 14-19 24-15 19-23 31-26 37-3 8-2 16 4 23 4 4 11 12 23 24l1 0 0 0 1 1c27 25 45 46 54 63 1 1 2 2 2 4 1 1 2 4 2 7 1 4 1 7 0 10-1 3-3 5-7 8-4 2-10 3-17 3l-73 2c-5 1-10 0-16-2-6-2-11-4-15-6l-6-4c-5-4-12-10-20-18-7-8-14-15-19-22-6-7-11-12-18-17-6-4-11-6-16-4 0 0-1 1-2 1-1 0-3 2-5 4-2 2-4 5-6 9-2 3-3 8-5 14-1 7-2 14-2 23 0 2 0 5-1 7 0 3-1 5-2 6l-1 1c-3 4-8 6-15 6l-33 0c-14 1-27 0-42-4-14-4-27-9-37-15-11-7-21-13-30-19-9-7-15-12-20-17l-7-7c-2-1-5-4-8-8-3-4-10-13-20-26-11-14-21-28-31-43-9-16-21-36-35-61-13-25-25-50-37-77-1-3-2-6-2-8 0-2 1-4 1-5l1-1c3-4 9-6 17-6l78 0c2 0 4 1 7 2 2 0 3 1 4 2l2 1c3 2 5 5 6 9 4 10 9 19 14 30 5 10 8 18 11 23l5 8c5 12 11 21 16 30 5 8 10 15 14 19 4 5 8 9 12 11 3 3 7 4 9 4 3 0 6 0 8-1 0 0 1-1 1-1 1-1 2-3 4-7 2-3 3-8 4-13 1-6 1-13 2-23 1-10 1-22 0-36 0-8-1-15-2-21-1-6-3-11-4-13l-2-3c-5-7-13-11-24-13-3 0-2-2 1-7 4-3 7-6 11-8 10-5 33-7 68-7 16 0 29 1 39 4 4 1 7 2 10 4 2 1 4 3 5 6 2 3 3 6 3 10 1 3 1 7 1 13 0 5 0 10 0 15 0 5 0 12-1 20 0 9 0 17 0 24 0 2 0 6 0 12 0 6-1 10 0 14 0 3 0 7 1 11 0 5 1 8 3 11 1 3 4 6 6 7 2 1 3 1 5 2 2 0 4-1 8-4 3-2 6-5 10-9 4-5 9-11 15-20 6-8 13-18 20-30 11-20 21-42 30-65 1-1 2-3 3-5 1-1 2-2 3-3l1 0 2-1 4-1 5 0 83-1c7-1 13 0 18 1 5 1 8 3 9 5z"/>
    </symbol>
  
    <symbol id="icon-twitter" viewBox="0 0 512 512">
      <path d="m481 117c-13 18-28 34-46 47 0 3 0 7 0 12 0 25-3 50-11 74-7 25-18 49-33 71-14 23-32 43-52 61-21 17-45 31-74 41-29 11-60 16-92 16-52 0-99-14-142-42 7 1 14 2 22 2 43 0 81-14 115-40-20 0-38-6-54-18-16-12-27-27-33-46 7 1 13 2 18 2 8 0 16-1 24-4-21-4-39-15-53-31-14-17-21-37-21-59l0-1c13 7 27 11 42 11-13-8-23-19-30-32-8-14-11-29-11-44 0-17 4-33 12-47 23 28 51 51 84 68 33 17 69 27 107 29-2-8-3-15-3-22 0-25 9-47 27-65 18-18 40-27 66-27 26 0 49 10 67 29 21-4 40-11 59-22-7 22-21 39-41 51 18-2 35-7 53-14z"/>
    </symbol>
  
    <symbol id="icon-facebook" viewBox="0 0 512 512">
      <path d="m384 3l0 76-45 0c-17 0-28 3-33 10-6 7-9 17-9 31l0 54 84 0-11 85-73 0 0 216-87 0 0-216-73 0 0-85 73 0 0-62c0-36 10-63 29-83 20-19 47-29 80-29 28 0 49 1 65 3z"/>
    </symbol>
  
    <symbol id="icon-search" viewBox="0 0 512 512">
      <path d="m347 238c0-36-12-66-37-91-25-25-55-37-91-37-35 0-65 12-90 37-25 25-38 55-38 91 0 35 13 65 38 90 25 25 55 38 90 38 36 0 66-13 91-38 25-25 37-55 37-90z m147 237c0 10-4 19-11 26-7 7-16 11-26 11-10 0-19-4-26-11l-98-98c-34 24-72 36-114 36-27 0-53-5-78-16-25-11-46-25-64-43-18-18-32-39-43-64-10-25-16-51-16-78 0-28 6-54 16-78 11-25 25-47 43-65 18-18 39-32 64-43 25-10 51-15 78-15 28 0 54 5 79 15 24 11 46 25 64 43 18 18 32 40 43 65 10 24 16 50 16 78 0 42-12 80-36 114l98 98c7 7 11 15 11 25z"/>
    </symbol>
  
    <symbol id="icon-external" viewBox="0 0 512 512">
      <path d="m384 384l-256 0 0-255 64-1 0-64-128 0 0 384 384 0 0-160-64 0z m-128-320l64 64-96 96 64 64 96-96 64 64 0-192z"/>
    </symbol>
  
    <symbol id="icon-file" viewBox="0 0 512 512">
      <path d="m96 64l179 0l13 13l0 83l83 0l13 13l0 275l-288 0z m-64-64l0 512l416 0l0-365l-147-147z"/>
    </symbol>
  
    <symbol id="icon-cross" viewBox="0 0 512 512">
      <path d="m434 352l-96-96l96-96c4-4 4-10 0-14l-68-68c-4-4-10-4-14 0l-96 96l-96-96c-4-4-11-4-14 0l-68 68c-2 1-3 4-3 7c0 2 1 5 3 7l96 96l-96 96c-2 2-3 5-3 7c0 3 1 6 3 7l68 68c1 2 4 3 7 3c2 0 5-1 7-3l96-96l96 96c2 2 5 3 7 3c3 0 5-1 7-3l68-68c4-4 4-10 0-14z"/>
    </symbol>
  
    <symbol id="icon-reply" viewBox="0 0 512 512">
      <path d="m183 309l0 20c0 8-4 14-11 17-3 1-5 1-7 1-6 0-10-1-13-5l-147-146c-3-4-5-8-5-13 0-5 2-9 5-13l147-146c5-6 12-8 20-4 7 3 11 9 11 17l0 19-114 114c-3 4-5 8-5 13 0 5 2 9 5 13z m329 11c0 11-2 24-5 38-3 15-7 28-11 40-4 11-9 23-14 35-5 12-8 21-11 26l-6 12c-1 3-4 4-8 4-1 0-2 0-2 0-5-1-7-5-7-10 8-76-2-130-30-161-12-14-29-24-49-32-20-7-46-12-76-15l0 72c0 8-4 14-12 17-2 1-4 1-7 1-5 0-9-1-13-5l-146-146c-3-4-5-8-5-13 0-5 2-9 5-13l146-146c6-6 13-8 20-4 8 3 12 9 12 17l0 74c78 6 135 27 171 64 32 33 48 81 48 145z"/>
    </symbol>
  
    <symbol id="icon-retweet" viewBox="0 0 512 512">
      <path d="m118 392c-9 0-17-8-17-18l0-140l-75 0l102-112l103 112l-76 0l0 103l81 0l53 55z m368-114l-75 0l0-140c0-10-8-18-17-18l-171 0l53 55l81 0l0 103l-76 0l103 113z"/>
    </symbol>
  
    <symbol id="icon-heart" viewBox="0 0 512 512">
      <path d="m256 432c200-157 192-212 192-256 0-43-36-96-96-96-60 0-96 64-96 64 0 0-36-64-96-64-60 0-96 53-96 96 0 44-7 99 192 256z"/>
    </symbol>
  
    <symbol id="icon-reddit" viewBox="0 0 512 512">
      <path d="m313 333c3 3 3 6 0 9-12 12-31 18-57 18-26 0-45-6-57-18-3-3-3-6 0-9 1-1 3-1 4-1 2 0 4 0 5 1 9 10 25 14 48 14 23 0 39-4 48-14 1-1 3-1 5-1 1 0 3 0 4 1z m-88-51c0 7-2 13-7 18-5 5-11 7-18 7-7 0-13-2-18-7-5-5-8-11-8-18 0-8 3-14 8-19 5-5 11-7 18-7 7 0 13 3 18 8 5 5 7 11 7 18z m113 0c0 7-3 13-8 18-5 5-11 7-18 7-7 0-13-2-18-7-5-5-7-11-7-18 0-7 2-13 7-18 5-5 11-8 18-8 7 0 13 2 18 7 5 5 8 11 8 19z m72-35c0-9-4-17-10-24-7-6-15-10-25-10-9 0-17 4-24 11-25-17-55-27-89-28l18-81 57 13c0 7 3 13 8 18 5 5 11 8 18 8 7 0 13-3 18-8 5-5 7-11 7-18 0-7-2-13-7-18-5-5-11-8-18-8-11 0-18 5-23 15l-63-14c-4-1-6 0-8 4l-19 89c-35 2-64 11-89 28-6-7-15-11-24-11-10 0-18 4-25 10-6 7-10 15-10 24 0 7 2 13 6 19 3 5 8 9 14 12-1 5-2 11-2 16 0 27 13 50 40 70 27 19 59 29 96 29 38 0 70-10 97-29 27-20 40-43 40-70 0-6-1-11-2-16 6-3 10-7 14-12 3-6 5-12 5-19z m102 9c0 35-7 68-20 99-14 32-32 59-55 82-23 23-50 41-82 55-31 13-64 20-99 20-35 0-68-7-99-20-32-14-59-32-82-55-23-23-41-50-55-82-13-31-20-64-20-99 0-35 7-68 20-99 14-32 32-59 55-82 23-23 50-41 82-55 31-13 64-20 99-20 35 0 68 7 99 20 32 14 59 32 82 55 23 23 41 50 55 82 13 31 20 64 20 99z"/>
    </symbol>
  
    <symbol id="icon-user" viewBox="0 0 512 512">
      <path d="m256 256c-106 0-192 86-192 192c0 35 29 64 64 64l256 0c35 0 64-29 64-64c0-106-86-192-192-192z m96-160c0 53-43 96-96 96c-53 0-96-43-96-96c0-53 43-96 96-96c53 0 96 43 96 96z"/>
    </symbol>
  
    <symbol id="icon-book" viewBox="0 0 512 512">
      <path d="m384 288l-64 0c-17 0-32 16-32 32l128 0c0-17-16-32-32-32z m-27-208c-84 0-105 16-117 28-12-12-33-28-116-28-84 0-124 23-124 39l0 293c15-8 60-24 107-28 58-4 117 5 117 16 0 8 4 16 16 16 0 0 0 0 0 0 0 0 0 0 1 0 11 0 15-8 15-16 0-11 60-20 117-16 47 4 93 20 107 28l0-293c0-16-40-39-123-39z m-133 286c-15-8-51-14-96-14-44 0-85 6-96 14 0 0 0-206 0-222 0-16 32-29 96-29 64 0 96 13 96 29 0 16 0 222 0 222z m224 0c-11-8-51-14-96-14-44 0-81 6-96 14 0 0 0-206 0-222 0-16 32-29 96-29 64 0 96 13 96 29 0 16 0 222 0 222z m-64-142l-64 0c-17 0-32 16-32 32l128 0c0-17-16-32-32-32z m0-64l-64 0c-17 0-32 16-32 32l128 0c0-17-16-32-32-32z m-224 64l-64 0c-16 0-32 15-32 32l128 0c0-16-15-32-32-32z m0 64l-64 0c-16 0-32 15-32 32l128 0c0-16-15-32-32-32z m0-128l-64 0c-16 0-32 15-32 32l128 0c0-16-15-32-32-32z"/>
    </symbol>
  
    <symbol id="icon-folder" viewBox="0 0 512 512">
      <path d="m453 199l-29 0l0-36c0-21-16-37-37-37l-153 0c-1-19-17-34-36-34l-83 0c-20 0-35 15-37 34l-12 0c-21 0-38 16-38 37l0 220c0 21 17 37 38 37l330 0c20 0 40-16 44-37l43-147c4-20-10-37-30-37z m-388 111l0-147l322 0l0 36l-256 0c-20 0-40 17-44 37z m339 63l0 2l-1 2c0 3-5 6-7 6l-313 0l40-137l0-1l0-2c1-3 6-7 8-7l313 0z"/>
    </symbol>
  
</svg>
