<svg class="whatever"  version="1.1" id="Layer_1" xmlns="http://www.w3.org/2000/svg" xmlns:xlink="http://www.w3.org/1999/xlink" x="0px" y="0px"
     viewBox="0 0 80 80" style="enable-background:new 0 0 80 80;" xml:space="preserve">
<style type="text/css">
	.st0{fill:#FFFFFF;}
	.st1{fill:#1D1D1B;}
</style>
    <g>
	<path d="M40,80c22.1,0,40-17.9,40-40S62.1,0,40,0S0,17.9,0,40S17.9,80,40,80"/>
        <path class="st0" d="M40,75c19.3,0,35-15.7,35-35S59.3,5,40,5S5,20.7,5,40S20.7,75,40,75"/>
</g>
    <polygon points="38.8,20.8 38.8,40 41.2,40 41.2,20.8 40,20 "/>
    <g>
	<path class="st1" d="M66.4,48.5c0.5-0.6,1.3-0.9,2.3-0.9v-1.5c-1.1,0-1.9,0.5-2.5,1.3l-0.7-1.2h-0.8v7.4h1.7V48.5z M61.3,49.1h-3
		c0.1-0.6,0.2-1,0.4-1.3c0.2-0.3,0.6-0.4,1.1-0.4s0.8,0.1,1.1,0.4C61.1,48.1,61.3,48.5,61.3,49.1 M62.9,51.5l-1.4-0.1
		c-0.1,0.7-0.6,1-1.5,1c-0.6,0-1-0.2-1.3-0.5c-0.3-0.3-0.4-0.9-0.4-1.7H63v-0.5c0-1.1-0.2-1.9-0.6-2.6c-0.5-0.8-1.3-1.2-2.6-1.2
		c-2.2,0-3.3,1.3-3.3,3.9c0,1.3,0.3,2.3,0.8,2.9c0.5,0.6,1.4,1,2.6,1C61.8,53.9,62.8,53.1,62.9,51.5 M56.1,46.2h-1.8l-1.7,5.4
		l-1.7-5.4h-1.8l2.5,7.4h1.9L56.1,46.2z M46.9,49.1h-3c0.1-0.6,0.2-1,0.4-1.3c0.2-0.3,0.6-0.4,1.1-0.4s0.8,0.1,1.1,0.4
		C46.7,48.1,46.9,48.5,46.9,49.1 M48.5,51.5l-1.4-0.1c-0.1,0.7-0.6,1-1.5,1c-0.6,0-1-0.2-1.3-0.5c-0.3-0.3-0.4-0.9-0.4-1.7h4.8v-0.5
		c0-1.1-0.2-1.9-0.6-2.6c-0.5-0.8-1.3-1.2-2.6-1.2c-2.2,0-3.3,1.3-3.3,3.9c0,1.3,0.3,2.3,0.8,2.9c0.5,0.6,1.4,1,2.6,1
		C47.4,53.9,48.4,53.1,48.5,51.5 M38.4,47.4v4.4c0,0.5,0,0.8,0.1,1.1c0.1,0.2,0.2,0.4,0.3,0.5c0.1,0.1,0.3,0.2,0.5,0.3
		c0.2,0.1,0.6,0.1,1,0.1s0.9-0.1,1.4-0.3l-0.2-1.1c-0.3,0.1-0.5,0.1-0.7,0.1c-0.2,0-0.4-0.1-0.5-0.2c-0.1-0.2-0.2-0.4-0.2-0.8v-4.2
		h1.4v-1.1h-1.4v-1.8l-1.7,0.4v1.4h-1.2v1.1H38.4z M31.9,52.4c-0.2-0.1-0.2-0.4-0.2-0.6c0-0.3,0.1-0.5,0.3-0.7s0.6-0.4,1.1-0.5
		l1.2-0.2v1.3c-0.6,0.6-1.2,0.9-1.8,0.9C32.3,52.6,32.1,52.5,31.9,52.4 M30.5,48.1l1.4,0.4c0.1-0.8,0.6-1.1,1.3-1.1
		c0.8,0,1.2,0.4,1.2,1.3v0.6l-1.6,0.2c-1.1,0.2-1.8,0.4-2.2,0.8c-0.4,0.4-0.6,0.9-0.6,1.5c0,0.6,0.2,1.1,0.5,1.5
		c0.3,0.4,0.8,0.6,1.5,0.6c0.9,0,1.7-0.4,2.4-1.1l0.5,0.9h1.1v-5c0-1.7-0.9-2.6-2.8-2.6C31.7,46.1,30.8,46.8,30.5,48.1 M24.1,43.8
		l-1.7,0.1v9.8h1.7V48c0.5-0.4,1.1-0.6,1.7-0.6c0.4,0,0.7,0.1,0.8,0.3c0.2,0.2,0.2,0.5,0.2,0.9v5.1h1.7v-5.3c0-0.7-0.2-1.3-0.6-1.7
		c-0.4-0.4-1-0.6-1.7-0.6c-0.8,0-1.5,0.2-2.2,0.6V43.8z M16.2,49.2l1.3,4.5h1.7l1.9-7.4h-1.8l-1.1,5.1l-1.2-4.4h-1.5l-1.2,4.4
		l-1.1-5.1h-1.8l1.9,7.4h1.6L16.2,49.2z"/>
        <path class="st1" d="M41.1,15.1c0.6-0.4,1.1-0.8,1.6-1.3c0.5-0.4,0.9-0.9,1.3-1.3c0.4-0.4,0.7-0.9,0.9-1.4c0.2-0.5,0.3-0.9,0.3-1.4
		c0-0.4-0.1-0.7-0.2-1c-0.1-0.3-0.3-0.6-0.6-0.8c-0.2-0.2-0.5-0.4-0.9-0.5c-0.3-0.1-0.7-0.2-1.1-0.2c-0.4,0-0.8,0.1-1.1,0.2
		c-0.4,0.1-0.7,0.3-0.9,0.5c-0.3,0.2-0.5,0.5-0.6,0.8c-0.1,0.3-0.2,0.6-0.2,1c0,0.3,0,0.5,0.1,0.7c0.1,0.2,0.2,0.4,0.3,0.5
		c0.1,0.2,0.3,0.3,0.5,0.4c0.2,0.1,0.4,0.1,0.6,0.1c0.2,0,0.4-0.1,0.6-0.2c0.2-0.1,0.3-0.3,0.3-0.4c-0.4,0-0.7-0.1-0.9-0.4
		c-0.2-0.2-0.3-0.6-0.3-1c0-0.5,0.1-0.9,0.4-1.2c0.3-0.3,0.7-0.5,1.1-0.5c0.5,0,0.9,0.2,1.1,0.5c0.3,0.3,0.4,0.8,0.4,1.4
		c0,0.4-0.1,0.8-0.2,1.2c-0.1,0.4-0.3,0.8-0.7,1.3c-0.3,0.5-0.8,1-1.3,1.6c-0.6,0.6-1.3,1.3-2.2,2.1v0.4h5.4l0.4-2.5h-0.4
		c-0.1,0.3-0.2,0.5-0.3,0.7c-0.1,0.2-0.2,0.3-0.3,0.4c-0.1,0.1-0.2,0.2-0.4,0.2c-0.1,0-0.3,0.1-0.5,0.1L41.1,15.1L41.1,15.1z
		 M37.2,7.3c-0.4,0.1-0.8,0.2-1.2,0.3c-0.4,0.1-0.8,0.1-1.2,0.2v0.4c0.4,0,0.7,0,0.9,0.1c0.2,0,0.3,0.1,0.3,0.3c0,0.1,0,0.3,0,0.6
		c0,0.3,0,0.7,0,1.1v4.2c0,0.3,0,0.5,0,0.7s-0.1,0.3-0.2,0.4c-0.1,0.1-0.2,0.2-0.4,0.2c-0.2,0-0.4,0.1-0.6,0.1v0.4h3.5v-0.4
		c-0.3,0-0.5,0-0.6-0.1c-0.2,0-0.3-0.1-0.4-0.2c-0.1-0.1-0.1-0.2-0.2-0.4s0-0.4,0-0.7V7.3z"/>
        <path class="st1" d="M20.7,62.3c0-0.4-0.1-0.8-0.1-1.2c0-0.4,0-0.8,0.1-1.2l-0.4-0.1c-0.1,0.4-0.2,0.7-0.3,0.8
		c-0.1,0.2-0.2,0.3-0.4,0.3c-0.1,0-0.3,0-0.6-0.1c-0.3-0.1-0.6-0.1-1.1-0.2l-4.1-1c-0.3-0.1-0.5-0.1-0.6-0.2
		c-0.2-0.1-0.3-0.2-0.4-0.3s-0.1-0.2-0.1-0.4c0-0.2,0-0.4,0.1-0.6L12.4,58l-0.8,3.4l0.4,0.1c0.1-0.3,0.1-0.5,0.2-0.6
		s0.2-0.2,0.3-0.3c0.1-0.1,0.3-0.1,0.5-0.1c0.2,0,0.4,0.1,0.7,0.1L20.7,62.3z"/>
        <path class="st1" d="M23.9,68.9c0.3-0.6,0.7-1.2,0.9-1.8c0.3-0.6,0.5-1.2,0.7-1.7c0.2-0.6,0.2-1.1,0.2-1.6c0-0.5-0.1-1-0.3-1.4
		c-0.1-0.3-0.3-0.6-0.6-0.8c-0.2-0.2-0.5-0.4-0.8-0.5s-0.7-0.1-1-0.1c-0.4,0-0.7,0.1-1.1,0.3c-0.4,0.2-0.7,0.4-1,0.6
		c-0.3,0.3-0.5,0.5-0.6,0.8c-0.1,0.3-0.2,0.6-0.2,0.9c0,0.3,0,0.6,0.2,1c0.1,0.2,0.2,0.4,0.4,0.6c0.2,0.2,0.3,0.3,0.5,0.4
		c0.2,0.1,0.4,0.1,0.6,0.1c0.2,0,0.4,0,0.6-0.1c0.2-0.1,0.4-0.2,0.5-0.4c0.1-0.2,0.1-0.3,0.1-0.5c-0.4,0.2-0.7,0.2-1,0
		c-0.3-0.1-0.5-0.4-0.7-0.8c-0.2-0.4-0.2-0.8-0.1-1.2c0.1-0.4,0.4-0.7,0.8-0.9c0.4-0.2,0.9-0.2,1.3,0c0.4,0.2,0.7,0.6,1,1.1
		c0.2,0.4,0.3,0.8,0.3,1.2c0,0.4,0,0.9-0.1,1.5c-0.1,0.6-0.3,1.2-0.6,2c-0.3,0.8-0.7,1.7-1.1,2.8l0.2,0.3l4.9-2.2l-0.6-2.4l-0.4,0.2
		c0,0.3,0,0.5,0,0.7c0,0.2,0,0.4-0.1,0.5c-0.1,0.1-0.1,0.2-0.3,0.3c-0.1,0.1-0.3,0.2-0.4,0.2L23.9,68.9L23.9,68.9z"/>
        <path class="st1" d="M60.4,66.5c0.2,0.4,0.1,0.8-0.1,1.3c-0.2,0.4-0.5,0.7-0.8,0.8c-0.3,0.1-0.7,0.1-1-0.1
		c-0.3-0.2-0.5-0.4-0.6-0.6c-0.1-0.3-0.1-0.5,0.1-0.8c-0.1,0-0.3,0-0.5,0.1c-0.2,0.1-0.3,0.3-0.4,0.4c-0.1,0.2-0.1,0.3-0.1,0.5
		c0,0.2,0,0.4,0.1,0.5c0.1,0.2,0.2,0.3,0.3,0.5c0.1,0.1,0.3,0.3,0.5,0.4c0.3,0.1,0.5,0.2,0.8,0.2s0.6-0.1,0.8-0.2
		c0.3-0.1,0.5-0.3,0.8-0.6c0.2-0.2,0.5-0.5,0.7-0.9c0.2-0.4,0.3-0.8,0.4-1.2c0.1-0.4,0.1-0.8,0-1.1c-0.1-0.3-0.2-0.7-0.4-0.9
		c-0.2-0.3-0.5-0.5-0.8-0.7c-0.3-0.1-0.5-0.2-0.8-0.3c-0.3,0-0.5,0-0.8,0c-0.3,0.1-0.5,0.2-0.8,0.3s-0.5,0.3-0.7,0.5l-0.1,0
		c0.1-0.2,0.1-0.5,0.1-0.7c0-0.2-0.1-0.5-0.2-0.7c-0.1-0.2-0.2-0.4-0.4-0.6c-0.2-0.2-0.4-0.3-0.6-0.5c-0.3-0.1-0.6-0.2-0.8-0.2
		s-0.6,0.1-0.8,0.2c-0.3,0.1-0.5,0.3-0.8,0.6c-0.2,0.3-0.5,0.6-0.7,0.9c-0.2,0.3-0.3,0.6-0.4,0.9c-0.1,0.3-0.1,0.6-0.1,0.8
		c0,0.3,0.1,0.5,0.2,0.7c0.1,0.2,0.3,0.4,0.5,0.5c0.2,0.1,0.3,0.1,0.5,0.1c0.2,0,0.3,0,0.5,0c0.1,0,0.3-0.1,0.4-0.2
		c0.1-0.1,0.2-0.2,0.3-0.4c0.1-0.2,0.1-0.3,0.1-0.5c0-0.2,0-0.3-0.1-0.4c-0.1,0.2-0.3,0.4-0.5,0.4c-0.2,0.1-0.4,0-0.7-0.1
		C53.2,65.5,53,65.3,53,65c-0.1-0.3,0-0.6,0.2-1c0.4-0.8,1.1-1,2.1-0.4c0.5,0.3,0.9,0.6,1.1,1c0.2,0.4,0.2,0.8,0,1.1
		c-0.1,0.1-0.2,0.2-0.3,0.3c-0.1,0.1-0.1,0.2-0.2,0.3c-0.1,0.1-0.1,0.3-0.1,0.4c0,0.1,0.1,0.2,0.1,0.2c0.1,0.1,0.2,0.1,0.3,0
		c0.1-0.1,0.2-0.1,0.3-0.3c0.1-0.1,0.1-0.2,0.1-0.4c0-0.1,0-0.3,0-0.4c0.2-0.4,0.5-0.7,1-0.7c0.4-0.1,0.9,0.1,1.5,0.4
		C59.8,65.8,60.2,66.1,60.4,66.5"/>
        <path class="st1" d="M53.7,59.3l1.4,2.4l-4.9-0.2l0,0L53.7,59.3z M55.9,61.8L54.2,59l0.2-0.1c0.2-0.1,0.4-0.2,0.6-0.3
		c0.2-0.1,0.3-0.1,0.4-0.1c0.1,0,0.2,0.1,0.4,0.2c0.1,0.1,0.2,0.3,0.4,0.5l0.4-0.2L55,56.2l-0.4,0.2c0.1,0.2,0.2,0.3,0.2,0.4
		c0,0.1,0,0.2,0,0.3c-0.1,0.1-0.2,0.2-0.3,0.3c-0.1,0.1-0.4,0.2-0.6,0.4L53.6,58c-0.1-0.2-0.2-0.4-0.2-0.5c0-0.1-0.1-0.3,0-0.4
		s0.1-0.2,0.2-0.3c0.1-0.1,0.2-0.2,0.4-0.3l-0.2-0.4l-2.2,1.3l0.2,0.3c0.2-0.1,0.4-0.2,0.5-0.2c0.1,0,0.2-0.1,0.3,0
		c0.1,0,0.2,0.1,0.3,0.2c0.1,0.1,0.2,0.3,0.3,0.5l-5.5,3.2l0.2,0.3l7.5,0.3L55.9,61.8z"/>
        <path class="st1" d="M49.3,72.6l-1-0.1c-0.5-0.1-0.9,0-1.2,0.2c-0.3,0.2-0.6,0.5-0.7,0.9l0.1,0c0.3-0.1,0.8-0.1,1.6-0.1
		c0.3,0,0.6,0.1,0.8,0.1c0.2,0.1,0.4,0.1,0.6,0.2l1.7-4.6c0,0,0-0.1,0-0.1c0-0.2-0.1-0.2-0.2-0.3c-0.1,0-0.1,0-0.2,0
		c0,0-0.1,0.1-0.2,0.3c-0.2,0.4-0.4,0.6-0.6,0.8c-0.2,0.2-0.5,0.2-0.8,0.2c-0.4,0-0.7-0.2-0.9-0.6c-0.1-0.3-0.2-0.8-0.1-1.5
		c0-0.5,0.1-0.9,0.3-1.2c0.1-0.4,0.3-0.7,0.5-0.9c0.2-0.2,0.4-0.4,0.7-0.5c0.3-0.1,0.5-0.2,0.8-0.1c0.2,0,0.4,0.1,0.5,0.2
		c0.1,0.1,0.2,0.2,0.3,0.4c0.1,0.1,0.1,0.3,0.1,0.4c0,0.2,0,0.3,0.1,0.4c0,0.1,0.1,0.2,0.2,0.3c0.1,0.1,0.2,0.1,0.3,0.2
		c0.2,0,0.3,0,0.4-0.1c0.1-0.1,0.2-0.3,0.2-0.5c0-0.2,0-0.4-0.1-0.7c-0.1-0.2-0.2-0.4-0.4-0.5c-0.2-0.2-0.4-0.3-0.7-0.4
		C51,65,50.8,65,50.4,64.9c-0.5,0-0.9,0-1.4,0.1c-0.4,0.1-0.8,0.3-1.1,0.6c-0.3,0.3-0.6,0.6-0.8,1c-0.2,0.4-0.3,0.8-0.4,1.3
		c0,0.4,0,0.7,0.1,1.1c0.1,0.3,0.2,0.6,0.4,0.9c0.2,0.3,0.4,0.5,0.7,0.6c0.3,0.2,0.6,0.3,0.9,0.3c0.2,0,0.4,0,0.7,0
		c0.2,0,0.4-0.1,0.5-0.2l0,0L49.3,72.6z"/>
        <path class="st1" d="M35.8,73.3c-0.5-0.3-0.8-0.7-1-1c-0.2-0.3-0.2-0.6-0.2-1c0.1-0.5,0.3-0.8,0.8-1c0.4-0.2,1-0.2,1.8-0.1
		c0.9,0.2,1.5,0.4,1.8,0.7c0.4,0.3,0.5,0.8,0.4,1.3c-0.2,1.1-1.2,1.4-3.1,1.1L35.8,73.3z M36.3,68.9c-0.4,0.1-0.7,0.2-1,0.4
		c-0.3,0.2-0.5,0.4-0.7,0.7c-0.2,0.3-0.3,0.6-0.4,1c-0.1,0.4,0,0.7,0.1,1.1c0.1,0.3,0.3,0.6,0.6,0.9l0,0c-0.5-0.1-1-0.2-1.4-0.4
		c-0.4-0.2-0.8-0.4-1.1-0.6c-0.3-0.2-0.5-0.5-0.6-0.7c-0.1-0.3-0.2-0.5-0.1-0.8c0.1-0.3,0.2-0.5,0.3-0.6c0.2-0.1,0.3-0.2,0.5-0.2
		c0.2-0.1,0.3-0.1,0.5-0.2c0.1-0.1,0.2-0.2,0.3-0.4c0-0.2,0-0.3-0.1-0.5c-0.1-0.1-0.2-0.2-0.4-0.2c-0.2,0-0.3,0-0.5,0.1
		c-0.2,0.1-0.3,0.2-0.4,0.4c-0.1,0.2-0.3,0.4-0.4,0.6c-0.1,0.2-0.2,0.5-0.2,0.8c-0.1,0.5,0,1,0.2,1.5c0.2,0.5,0.5,0.9,0.9,1.3
		c0.4,0.4,0.9,0.8,1.5,1.1c0.6,0.3,1.2,0.5,1.9,0.6c0.6,0.1,1.1,0.1,1.6,0.1c0.5-0.1,1-0.2,1.4-0.4c0.4-0.2,0.7-0.5,1-0.8
		c0.3-0.3,0.4-0.7,0.5-1.1c0.1-0.4,0.1-0.8,0-1.2c-0.1-0.4-0.3-0.8-0.5-1.1s-0.5-0.6-0.9-0.8c-0.3-0.2-0.7-0.4-1.2-0.4
		C37,68.8,36.7,68.8,36.3,68.9"/>
        <path class="st1" d="M38.6,66.7c-0.7,0.2-1.2,0.4-1.7,0.6c-0.5,0.2-0.9,0.3-1.2,0.4c-0.3,0.1-0.6,0.2-0.8,0.3
		c-0.2,0.1-0.4,0.1-0.5,0.2c-0.1,0.1-0.2,0.1-0.3,0.2c-0.1,0-0.1,0.1-0.2,0.1C34,68.5,34,68.6,34,68.8c0,0.1,0,0.3,0.1,0.4
		c0.1,0.1,0.2,0.1,0.3,0.1c0.1,0,0.2,0,0.4,0c0.2,0,0.3-0.1,0.6-0.2c0.2-0.1,0.5-0.2,0.8-0.4c0.5-0.2,0.9-0.4,1.2-0.6
		c0.4-0.2,0.7-0.3,1-0.5c0.3-0.1,0.6-0.3,1-0.4c0.3-0.1,0.7-0.3,1-0.4c0.4-0.2,0.8-0.3,1.2-0.5c0.4-0.2,1-0.4,1.5-0.6l0.2-0.2
		l-2.4-2.4c-0.3-0.2-0.4-0.4-0.5-0.5c-0.1-0.1,0-0.2,0.1-0.3c0,0,0.1-0.1,0.1-0.1c0.1,0,0.1-0.1,0.1-0.1l-0.3-0.3l-2.8,1.8l0.3,0.3
		l0.4-0.2c0.2-0.1,0.4-0.2,0.5-0.2c0.1,0,0.3,0,0.4,0c0.1,0,0.3,0.1,0.4,0.2c0.1,0.1,0.3,0.3,0.5,0.5l1.5,1.5L38.6,66.7z"/>
        <path class="st1" d="M28.6,61.6c-0.6-0.1-1-0.3-1.3-0.5c-0.3-0.2-0.5-0.4-0.5-0.7c-0.1-0.4,0-0.7,0.1-1c0.2-0.3,0.5-0.5,0.9-0.6
		c0.2-0.1,0.4-0.1,0.6,0c0.2,0,0.4,0.1,0.6,0.2c0.2,0.1,0.3,0.2,0.4,0.4c0.1,0.2,0.2,0.4,0.3,0.6c0.1,0.3,0.1,0.6,0,0.9
		s-0.3,0.6-0.6,0.9L28.6,61.6z M30.6,60.7c0.2-0.4,0.2-0.8,0.1-1.1c-0.1-0.3-0.2-0.6-0.4-0.8c-0.2-0.2-0.5-0.4-0.8-0.5
		c-0.5-0.2-1.1-0.2-1.7-0.1c-0.7,0.2-1.2,0.5-1.5,1c-0.2,0.3-0.3,0.6-0.3,0.9c-0.1,0.3,0,0.6,0,0.9c0.2,0.9,0.9,1.5,2.1,1.8
		c-1.1,0.9-1.5,1.8-1.3,2.8c0.1,0.3,0.2,0.6,0.4,0.8c0.2,0.2,0.4,0.4,0.7,0.5c0.3,0.1,0.6,0.2,1,0.2c0.4,0,0.7,0,1.1-0.1
		c0.4-0.1,0.7-0.3,1-0.5c0.3-0.2,0.6-0.5,0.7-0.7c0.2-0.3,0.3-0.6,0.4-0.9c0.1-0.3,0.1-0.7,0-1c-0.3-1-1.1-1.7-2.4-2
		C30.1,61.5,30.4,61.1,30.6,60.7 M29.3,63.2c0.3,0.1,0.6,0.2,0.8,0.3c0.2,0.1,0.4,0.2,0.5,0.3c0.1,0.1,0.3,0.2,0.3,0.4
		c0.1,0.1,0.1,0.3,0.2,0.4c0.1,0.5,0.1,0.9-0.2,1.3c-0.2,0.4-0.6,0.6-1.1,0.7c-0.5,0.1-1,0.1-1.3-0.1c-0.4-0.2-0.6-0.6-0.8-1.1
		c-0.1-0.4-0.1-0.8,0-1.2c0.1-0.4,0.4-0.8,0.7-1.1L29.3,63.2z"/>
        <path class="st1" d="M46.5,64.6c-0.4,0.4-0.8,0.7-1.1,0.8c-0.3,0.1-0.7,0.1-1,0c-0.4-0.2-0.7-0.5-0.8-0.9c-0.1-0.5,0-1.1,0.3-1.8
		c0.3-0.8,0.6-1.4,1-1.7c0.4-0.3,0.8-0.4,1.3-0.2c1,0.4,1.2,1.4,0.5,3.2L46.5,64.6z M42.3,63.3c0,0.4,0.1,0.7,0.2,1.1
		c0.1,0.3,0.3,0.6,0.6,0.9s0.6,0.4,0.9,0.6c0.4,0.1,0.7,0.2,1,0.1s0.7-0.2,1-0.5l0,0c-0.2,0.5-0.4,0.9-0.6,1.3
		c-0.2,0.4-0.5,0.7-0.8,0.9c-0.3,0.2-0.5,0.4-0.8,0.5c-0.3,0.1-0.5,0.1-0.8,0c-0.3-0.1-0.5-0.2-0.5-0.4c-0.1-0.2-0.1-0.3-0.2-0.5
		c0-0.2-0.1-0.3-0.1-0.5s-0.2-0.3-0.4-0.3c-0.2-0.1-0.3-0.1-0.5,0c-0.1,0.1-0.2,0.2-0.3,0.4c-0.1,0.2-0.1,0.3,0,0.5
		c0,0.2,0.1,0.3,0.3,0.5c0.1,0.2,0.3,0.3,0.5,0.5c0.2,0.1,0.4,0.3,0.7,0.4c0.5,0.2,1,0.2,1.5,0.1c0.5-0.1,1-0.3,1.5-0.6
		c0.5-0.3,0.9-0.7,1.3-1.3s0.7-1.1,0.9-1.8c0.2-0.5,0.3-1.1,0.3-1.6c0-0.5,0-1-0.1-1.4c-0.1-0.4-0.3-0.8-0.6-1.1
		c-0.3-0.3-0.6-0.5-1-0.7c-0.4-0.1-0.8-0.2-1.2-0.2c-0.4,0-0.8,0.1-1.1,0.3c-0.4,0.2-0.7,0.4-1,0.7c-0.3,0.3-0.5,0.7-0.6,1.1
		C42.3,62.6,42.3,63,42.3,63.3"/>
        <path class="st1" d="M66.8,63.4c-0.1-0.4-0.2-0.8-0.3-1.2c-0.1-0.4-0.1-0.8-0.1-1.2L66,61c0,0.4,0,0.7-0.1,0.9
		c0,0.2-0.2,0.3-0.3,0.3c-0.1,0-0.3,0-0.6,0c-0.3,0-0.7,0-1.1,0L59.7,62c-0.3,0-0.5,0-0.7-0.1c-0.2,0-0.3-0.1-0.4-0.2
		c-0.1-0.1-0.2-0.2-0.2-0.4c0-0.2-0.1-0.4-0.1-0.6l-0.4,0l-0.1,3.5l0.4,0c0-0.3,0-0.5,0.1-0.6c0-0.2,0.1-0.3,0.2-0.4
		c0.1-0.1,0.3-0.1,0.4-0.2c0.2,0,0.4,0,0.7,0L66.8,63.4z"/>
        <path class="st1" d="M33.3,64.7c-0.2-0.2-0.3-0.5-0.3-0.8c0-0.3,0-0.8,0.1-1.3c0.1-0.5,0.3-1.1,0.5-1.8c0.3-0.7,0.5-1.3,0.8-1.8
		c0.3-0.5,0.5-0.8,0.8-1.1c0.3-0.2,0.5-0.4,0.8-0.4s0.5,0,0.8,0.1c0.3,0.1,0.5,0.3,0.7,0.5c0.2,0.2,0.3,0.5,0.3,0.8
		c0,0.4,0,0.8-0.1,1.3c-0.1,0.5-0.3,1.2-0.5,1.9c-0.3,0.7-0.5,1.3-0.8,1.7c-0.3,0.4-0.5,0.8-0.8,1c-0.3,0.2-0.5,0.4-0.8,0.4
		c-0.3,0-0.5,0-0.8-0.1C33.7,65,33.5,64.9,33.3,64.7 M35.5,56.9c-0.5,0.1-0.9,0.3-1.4,0.6c-0.4,0.3-0.8,0.7-1.2,1.1
		c-0.4,0.5-0.7,1-0.9,1.6c-0.2,0.6-0.3,1.2-0.3,1.7c0,0.6,0,1.1,0.2,1.6c0.2,0.5,0.4,0.9,0.7,1.3c0.3,0.4,0.7,0.6,1.1,0.8
		c0.4,0.2,0.9,0.2,1.4,0.1c0.5-0.1,0.9-0.3,1.3-0.5c0.4-0.3,0.8-0.6,1.2-1.1c0.4-0.5,0.6-1,0.9-1.6c0.2-0.6,0.3-1.2,0.4-1.8
		c0-0.6,0-1.1-0.2-1.6c-0.1-0.5-0.4-0.9-0.7-1.3c-0.3-0.4-0.7-0.6-1.1-0.8C36.5,56.9,36,56.9,35.5,56.9"/>
        <path class="st1" d="M27,58.6c-0.2-0.4-0.3-0.8-0.4-1.2c-0.1-0.4-0.2-0.8-0.3-1.2l-0.4,0c0,0.4,0,0.7,0,0.9c0,0.2-0.1,0.3-0.3,0.4
		c-0.1,0-0.3,0.1-0.6,0.1c-0.3,0-0.7,0.1-1.1,0.1l-4.2,0.4c-0.3,0-0.5,0-0.7,0c-0.2,0-0.3-0.1-0.4-0.1s-0.2-0.2-0.2-0.3
		c-0.1-0.2-0.1-0.4-0.1-0.6l-0.4,0l0.3,3.5l0.4,0c0-0.3,0-0.5,0-0.6c0-0.2,0.1-0.3,0.2-0.4c0.1-0.1,0.2-0.2,0.4-0.2
		c0.2,0,0.4-0.1,0.7-0.1L27,58.6z"/>
        <path class="st1" d="M26.7,71.7c0.3,0.2,0.7,0.4,1,0.7c0.3,0.3,0.7,0.5,0.9,0.8l0.3-0.3c-0.3-0.3-0.4-0.5-0.5-0.7
		c-0.1-0.2-0.1-0.3,0-0.5c0.1-0.1,0.2-0.2,0.4-0.4c0.2-0.2,0.5-0.4,0.8-0.7l3.1-2.8c0.2-0.2,0.4-0.3,0.5-0.4
		c0.1-0.1,0.3-0.1,0.4-0.1c0.1,0,0.3,0,0.4,0.1c0.1,0.1,0.3,0.2,0.5,0.4l0.3-0.3l-2.4-2.6l-0.3,0.3c0.2,0.2,0.3,0.4,0.4,0.5
		s0.1,0.3,0.1,0.4c0,0.1-0.1,0.3-0.2,0.4c-0.1,0.1-0.3,0.3-0.5,0.5L26.7,71.7z"/>
</g>
    <polygon class="st1" points="50,9.5 38.6,40.8 40.5,41.5 51.9,10.2 51.2,9.2 "/>
    <g>
	<path class="st1" d="M40,43c1.7,0,3-1.3,3-3c0-1.7-1.3-3-3-3c-1.7,0-3,1.3-3,3C37,41.7,38.3,43,40,43"/>
        <path d="M40,42c1.1,0,2-0.9,2-2c0-1.1-0.9-2-2-2c-1.1,0-2,0.9-2,2C38,41.1,38.9,42,40,42"/>
</g>
</svg>