<svg class="whatever" viewBox="0 0 274 274" fill="none" xmlns="http://www.w3.org/2000/svg">

    <path fill-rule="evenodd" clip-rule="evenodd" d="M137 274C212.663 274 274 212.663 274 137C274 61.337 212.663 0 137 0C61.337 0 0 61.337 0 137C0 212.663 61.337 274 137 274Z" fill="black"/>
    <path d="M137 256.875C203.205 256.875 256.875 203.205 256.875 137C256.875 70.7949 203.205 17.125 137 17.125C70.7949 17.125 17.125 70.7949 17.125 137C17.125 203.205 70.7949 256.875 137 256.875Z" fill="white"/>
    <path d="M132.89 74.6652L137 71.9251L141.11 74.6652L143.85 137H130.15L132.89 74.6652Z" fill="black"/>
    <path d="M184.069 37.3134L188.365 36.4288L190.171 40.4259L143 140L131.5 134L184.069 37.3134Z" fill="black"/>
    <path d="M143.85 137C143.85 140.783 140.783 143.85 137 143.85C133.217 143.85 130.15 140.783 130.15 137C130.15 133.217 133.217 130.15 137 130.15C140.783 130.15 143.85 133.217 143.85 137Z" fill="black"/>
    <path class="whatever-1" d="M128.8 205.401C129.149 206.791 129.484 207.9 129.805 208.729C130.154 209.513 130.586 210.106 131.103 210.507C131.647 210.863 132.316 211.036 133.109 211.027C133.938 211.008 134.998 210.856 136.29 210.57L136.827 212.709L116.724 217.749L116.188 215.61C117.569 215.226 118.647 214.842 119.422 214.458C120.224 214.03 120.785 213.548 121.106 213.013C121.453 212.434 121.599 211.734 121.545 210.914C121.518 210.049 121.348 208.993 121.035 207.745L116.169 188.334C115.65 186.267 115.203 184.56 114.828 183.214C114.488 181.86 114.194 180.986 113.944 180.594C113.533 179.864 112.789 179.539 111.711 179.62C110.668 179.692 109.131 179.982 107.099 180.492L106.563 178.353C107.516 178.076 108.604 177.728 109.824 177.308C111.072 176.844 112.332 176.357 113.606 175.848C114.907 175.295 116.168 174.732 117.388 174.161C118.609 173.59 119.66 173.023 120.542 172.461L128.8 205.401Z" fill="black"/>
    <path class="whatever-6" d="M142.018 220C144.097 220 146.046 220.435 147.866 221.306C149.685 222.139 151.282 223.294 152.656 224.771C153.992 226.248 155.051 227.99 155.83 229.997C156.61 231.966 157 234.086 157 236.358C157 238.819 156.536 241.072 155.608 243.117C154.642 245.162 153.305 246.923 151.597 248.399C149.889 249.838 147.866 250.974 145.527 251.807C143.15 252.602 140.532 253 137.673 253C134.295 253 131.12 252.47 128.149 251.41C125.142 250.349 122.524 248.91 120.296 247.093C118.031 245.275 116.249 243.155 114.949 240.731C113.65 238.308 113 235.714 113 232.95C113 231.435 113.167 230.015 113.501 228.69C113.798 227.365 114.225 226.229 114.782 225.282C115.339 224.298 116.008 223.522 116.787 222.954C117.53 222.386 118.347 222.102 119.238 222.102C120.315 222.102 121.169 222.442 121.8 223.124C122.394 223.806 122.691 224.714 122.691 225.85C122.691 226.645 122.524 227.27 122.19 227.725C121.856 228.179 121.447 228.577 120.965 228.917C120.482 229.22 119.962 229.504 119.405 229.769C118.811 230.034 118.273 230.375 117.79 230.792C117.307 231.17 116.899 231.663 116.565 232.269C116.23 232.874 116.063 233.688 116.063 234.711C116.063 235.96 116.472 237.115 117.289 238.176C118.068 239.236 119.164 240.164 120.575 240.959C121.949 241.716 123.582 242.322 125.476 242.776C127.37 243.231 129.43 243.458 131.658 243.458L131.77 243.287C130.433 242.076 129.449 240.807 128.818 239.482C128.186 238.119 127.871 236.528 127.871 234.711C127.871 232.628 128.242 230.697 128.985 228.917C129.69 227.1 130.674 225.547 131.937 224.26C133.199 222.935 134.703 221.893 136.448 221.136C138.156 220.379 140.013 220 142.018 220ZM140.681 243.571C145.062 243.571 148.367 242.947 150.595 241.697C152.823 240.41 153.937 238.554 153.937 236.131C153.937 233.745 152.99 231.985 151.096 230.849C149.203 229.713 146.251 229.145 142.241 229.145C138.602 229.145 135.854 229.694 133.997 230.792C132.104 231.852 131.157 233.423 131.157 235.506C131.157 237.172 131.677 238.63 132.716 239.88C133.756 241.129 135.408 242.36 137.673 243.571L140.681 243.571Z" fill="black"/>
    <path class="whatever-9" d="M81.4282 208.169C82.1038 206.203 83.1191 204.491 84.4742 203.032C85.8641 201.586 87.4533 200.463 89.2419 199.664C91.0426 198.83 92.9725 198.355 95.0316 198.238C97.1255 198.133 99.2142 198.438 101.298 199.154C103.555 199.929 105.464 201.096 107.026 202.653C108.599 204.175 109.769 205.97 110.533 208.039C111.333 210.12 111.711 212.409 111.668 214.907C111.66 217.417 111.197 220.006 110.28 222.675C109.183 225.871 107.659 228.724 105.709 231.234C103.772 233.709 101.602 235.732 99.1991 237.301C96.8084 238.835 94.2906 239.835 91.6459 240.301C89.0012 240.766 86.4113 240.564 83.8763 239.693C82.4873 239.216 81.2394 238.61 80.1325 237.877C79.0136 237.178 78.0932 236.41 77.3713 235.574C76.6841 234.749 76.2007 233.895 75.9211 233.014C75.6535 232.098 75.6645 231.218 75.9541 230.375C76.3039 229.357 76.8879 228.674 77.706 228.327C78.5362 227.945 79.4722 227.933 80.5139 228.291C81.2085 228.529 81.7098 228.878 82.0179 229.337C82.3608 229.808 82.5927 230.32 82.7137 230.872C82.8694 231.436 82.9723 232.04 83.0223 232.686C83.0844 233.296 83.2107 233.889 83.4011 234.465C83.6263 235.053 83.9624 235.6 84.4094 236.107C84.8565 236.614 85.5488 237.028 86.4864 237.351C87.6671 237.756 88.8876 237.763 90.148 237.372C91.4205 236.945 92.6446 236.208 93.8202 235.159C95.0426 234.087 96.1698 232.727 97.2018 231.079C98.2338 229.431 99.1117 227.554 99.8355 225.447L99.7155 225.288C98.1699 226.17 96.6522 226.689 95.1622 226.845C93.6722 227.001 92.0591 226.78 90.3228 226.184C88.4129 225.527 86.7391 224.579 85.3015 223.34C83.9106 222.077 82.8126 220.639 82.0073 219.028C81.2368 217.428 80.7818 215.701 80.6422 213.847C80.5147 211.958 80.7767 210.066 81.4282 208.169ZM102.52 217.123C103.98 212.874 104.488 209.476 104.043 206.928C103.633 204.393 102.317 202.743 100.094 201.979C97.9064 201.228 95.984 201.568 94.3269 203.001C92.6698 204.435 91.1898 207.047 89.8869 210.84C88.7046 214.281 88.292 217.064 88.6491 219.189C89.0529 221.291 90.2098 222.67 92.1197 223.326C93.6477 223.851 95.1535 223.819 96.6373 223.229C98.1211 222.64 99.7865 221.465 101.634 219.705L102.52 217.123Z" fill="black"/>
    <path class="whatever-3" d="M192.04 217.81C189.278 217.07 186.999 217.04 185.202 217.721C183.369 218.393 182.191 219.705 181.668 221.658C181.761 222.458 181.805 223.226 181.8 223.961C181.805 224.66 181.745 225.245 181.619 225.715C181.347 226.728 180.937 227.47 180.387 227.943C179.812 228.37 179.147 228.483 178.394 228.281C177.748 228.108 177.319 227.702 177.106 227.064C176.892 226.425 176.916 225.618 177.178 224.641C177.314 224.135 177.536 223.594 177.844 223.017C178.126 222.395 178.406 221.85 178.686 221.382C179.151 219.647 178.855 218.095 177.8 216.726C176.718 215.313 174.832 214.245 172.142 213.524C169.56 212.832 167.465 212.833 165.856 213.526C164.258 214.183 163.222 215.398 162.747 217.17C162.301 218.833 162.347 220.241 162.884 221.393C163.431 222.508 164.403 223.253 165.802 223.628C166.77 223.888 167.65 223.833 168.441 223.463C169.242 223.057 169.758 222.421 169.991 221.553C170.901 222.029 171.546 222.706 171.926 223.583C172.27 224.45 172.292 225.445 171.992 226.566C171.759 227.434 171.375 228.222 170.839 228.931C170.313 229.604 169.685 230.153 168.956 230.578C168.227 231.003 167.456 231.3 166.642 231.47C165.801 231.593 164.951 231.54 164.09 231.309C162.942 231.002 161.985 230.415 161.217 229.551C160.449 228.686 159.875 227.602 159.494 226.298C159.122 224.958 158.965 223.463 159.023 221.812C159.091 220.124 159.387 218.304 159.91 216.352C160.482 214.218 161.228 212.364 162.15 210.789C163.046 209.168 164.088 207.859 165.279 206.86C166.433 205.851 167.689 205.18 169.047 204.846C170.405 204.512 171.802 204.538 173.236 204.922C174.384 205.23 175.442 205.726 176.412 206.413C177.391 207.062 178.232 207.869 178.935 208.833C179.611 209.75 180.142 210.784 180.526 211.933C180.919 213.047 181.109 214.202 181.096 215.4L181.419 215.487C182.181 214.218 183.072 213.12 184.089 212.191C185.081 211.216 186.167 210.461 187.349 209.924C188.53 209.388 189.753 209.057 191.017 208.931C192.281 208.804 193.559 208.914 194.85 209.26C196.536 209.712 197.989 210.527 199.211 211.707C200.442 212.851 201.388 214.268 202.051 215.957C202.722 217.61 203.088 219.471 203.149 221.542C203.219 223.576 202.948 225.733 202.338 228.011C201.786 230.072 201.039 231.926 200.098 233.573C199.131 235.175 198.065 236.498 196.901 237.543C195.701 238.578 194.43 239.303 193.089 239.719C191.711 240.125 190.323 240.141 188.925 239.766C187.92 239.497 187.036 239.066 186.272 238.474C185.482 237.836 184.852 237.105 184.381 236.281C183.874 235.447 183.539 234.544 183.377 233.57C183.215 232.596 183.265 231.621 183.527 230.645C183.846 229.451 184.441 228.525 185.309 227.867C186.142 227.198 187.107 226.895 188.205 226.957C187.915 228.041 188.121 229.066 188.823 230.029C189.49 230.983 190.47 231.633 191.761 231.979C193.518 232.45 195.085 232.269 196.461 231.436C197.812 230.558 198.743 229.16 199.257 227.243C199.809 225.182 199.435 223.279 198.134 221.535C196.833 219.791 194.802 218.55 192.04 217.81Z" fill="black"/>
    <path class="whatever-2" d="M141.532 187.572L146.582 197.986C146.994 198.837 147.424 199.554 147.869 200.136C148.348 200.703 148.918 201.12 149.579 201.388C150.257 201.69 151.058 201.869 151.984 201.925C152.942 201.964 154.091 201.891 155.43 201.704L156.519 203.95L143.971 207.512L131 180.761L133.282 179.654C138.619 182.069 143.138 183.976 146.839 185.376C150.574 186.76 153.755 187.719 156.382 188.253C159.06 188.804 161.341 188.959 163.225 188.718C165.159 188.495 167.002 187.959 168.755 187.109C171.169 185.938 172.798 184.455 173.643 182.658C174.487 180.861 174.439 178.993 173.498 177.053C173.053 176.134 172.466 175.346 171.74 174.69C171.063 174.051 170.303 173.579 169.46 173.273C168.634 173.001 167.741 172.887 166.782 172.932C165.84 173.01 164.906 173.274 163.98 173.723C162.327 174.525 161.227 175.584 160.68 176.9C160.15 178.25 160.248 179.673 160.975 181.171C159.933 181.466 158.941 181.358 158 180.848C157.074 180.372 156.348 179.589 155.82 178.5C155.308 177.445 155.011 176.37 154.93 175.274C154.864 174.213 154.997 173.182 155.329 172.18C155.676 171.213 156.206 170.325 156.917 169.518C157.662 168.695 158.58 168.018 159.671 167.489C161.159 166.768 162.68 166.451 164.234 166.538C165.837 166.644 167.407 167.101 168.943 167.912C170.48 168.722 171.909 169.858 173.23 171.319C174.601 172.798 175.773 174.542 176.747 176.55C177.72 178.558 178.347 180.524 178.626 182.449C178.906 184.373 178.855 186.163 178.474 187.819C178.142 189.494 177.471 190.975 176.462 192.263C175.502 193.569 174.229 194.607 172.641 195.376C170.657 196.338 168.492 196.8 166.145 196.761C163.814 196.756 161.352 196.353 158.757 195.551C156.179 194.783 153.461 193.684 150.603 192.253C147.761 190.857 144.812 189.239 141.755 187.4L141.532 187.572Z" fill="black"/>

</svg>