<svg id="Layer_1" xmlns="http://www.w3.org/2000/svg" xmlns:xlink="http://www.w3.org/1999/xlink" x="0px" y="0px"
	 viewBox="0 0 234 104" style="enable-background:new 0 0 234 104;" xml:space="preserve">
<rect class="fill-yellow group-hover:translate-x-[-18px] transition-transform duration-500" x="18" y="0" width="216" height="86"/>
<path class="fill-black group-hover:translate-x-[18px] transition-transform duration-500" d="M2,20h212v82H2V20z M0,104h216V18H0V104z"/>
<g class="group-hover:translate-x-[18px] transition-transform duration-500">
	<path class="fill-black"
		  d="M18,86h5V66.2h-5V86z M29.1,86h4.7V75.1c0-1.5,0-1.9-0.2-3.4c1.1,1.4,1.5,1.9,2.6,3.1L46,86h4.9V66.2h-4.7
		v10.1c0,1.7,0,2.2,0.2,4.1c-1.2-1.5-1.5-1.8-2.6-3.2l-9.7-11h-4.9V86z M54.9,81c2.6,5,7.6,5.6,10.8,5.6c2.5,0,10.1-0.2,10.1-6.6
		c0-4.3-3.9-5.2-6.2-5.6c-0.9-0.2-5-0.9-5.8-1c-1.5-0.3-2.6-0.7-2.6-2c0-1.9,2.2-2.3,4.4-2.3c1,0,2.7,0.1,4,0.8
		c1.2,0.6,1.6,1.3,1.7,1.6l4.7-1.2c-0.4-0.6-1.3-2.1-3.3-3.2c-2-1.1-4.3-1.5-7.2-1.5c-3.1,0-6.8,0.7-8.4,3.4
		c-0.5,0.8-0.8,1.8-0.8,2.8c0,4.5,4.6,5.4,6.4,5.7c0.9,0.2,5,0.8,5.8,1c1.1,0.2,2.4,0.5,2.4,2c0,2.4-3.8,2.6-5,2.6
		c-2.7,0-5.5-0.7-6.6-3.1L54.9,81z M77.5,69.8h7.3V86h5V69.8h7.3v-3.6H77.5V69.8z M100.3,86h5V66.2h-5V86z M108.4,69.8h7.3V86h5
		V69.8h7.3v-3.6h-19.7V69.8z M131.1,77.7c0,2.4,0,5,3.1,7.1c1.2,0.8,2.5,1.2,3.4,1.4c1.4,0.3,2.8,0.5,4.2,0.5c3,0,6.8-0.8,8.9-3
		c1.7-1.9,1.7-3.8,1.7-5.9V66.2h-4.9v11.7c0.1,2-0.4,2.6-0.8,3.2c-0.8,0.9-2,1.4-3.9,1.6c-1.5,0.1-2.9,0.1-4.5-0.6
		c-1.9-0.9-2.2-2.4-2.2-4.2V66.2h-4.9V77.7z M155.7,69.8h7.3V86h5V69.8h7.3v-3.6h-19.7V69.8z M178.5,86h19.4v-3.5h-14.4v-4.7h13
		v-3.5h-13v-4.5h14.4v-3.6h-19.4V86z"/>
	<path class="fill-black"
		  d="M18,63.6h7.4c1.6,0,3.3-0.1,4.3-1.3c1-1.1,1-2.5,1-3.7v-9.9c0-1.2,0-3.2-2-4.3c-0.7-0.4-1.7-0.7-3.5-0.7H18
		V63.6z M24.1,47.2c1.4,0,1.8,0.5,1.8,1.8v9.5c0,1.3-0.4,1.7-1.8,1.7h-1.5v-13H24.1z M32.8,63.6h4.7l0.7-4.5h3.7l0.7,4.5h4.7
		l-4-19.8h-6.4L32.8,63.6z M41.4,55.7h-2.7l1.3-8.8L41.4,55.7z M47.7,43.8l3.7,19.8h6.8l3.5-19.8h-4.8l-2,15.3h-0.2l-2.1-15.3H47.7z
		 M64.2,63.6H69V43.8h-4.8V63.6z M73,63.6h7.4c1.6,0,3.3-0.1,4.3-1.3c1-1.1,1-2.5,1-3.7v-9.9c0-1.2,0-3.2-2-4.3
		c-0.7-0.4-1.7-0.7-3.5-0.7H73V63.6z M79.1,47.2c1.4,0,1.8,0.5,1.8,1.8v9.5c0,1.3-0.4,1.7-1.8,1.7h-1.5v-13H79.1z M108.8,48.8
		c0-1.7,0-3.5-2.1-4.6c-1.4-0.8-3.5-0.8-4.2-0.8c-4.8,0-6.1,1.8-6.1,6.3v7.4c0,2.6,0,6.5,4.2,6.5c1,0,2.3-0.1,3.6-1.9v1.8h4.6V53.1
		h-6.5v3.3h1.8v2.2c0,0.7,0,1.9-1.5,1.9c-1.5,0-1.5-1.2-1.5-1.9v-9.9c0-0.9,0-1.9,1.5-1.9c1.5,0,1.5,1.1,1.5,1.8v1.8h4.6V48.8z
		 M112.4,63.6h4.5v-8.4c2.7,0,3.1,0,3.1,2.2c0,0.6-0.1,2.9-0.1,3.4c0,1.6,0.3,2.2,0.7,2.9h4.4c-0.4-0.5-0.7-0.9-0.7-2.2v-4.2
		c0-2.4-0.2-3.4-2.6-4c1.5-0.8,2.5-1.5,2.5-4.4c0-1.4-0.1-2.8-1-3.8c-1.1-1.2-2.9-1.3-4.2-1.3h-6.7V63.6z M118.3,47.2
		c1.4,0,1.7,0.3,1.7,2c0,1.5-0.1,2.2-1,2.4c-0.2,0.1-0.6,0.1-2.1,0.1v-4.5H118.3z M126.6,63.6h4.7L132,59h3.7l0.7,4.5h4.7l-4-19.8
		h-6.4L126.6,63.6z M135.2,55.7h-2.7l1.3-8.8L135.2,55.7z M143.6,43.7v19.8h10.2v-3.5h-5.4v-4.8h5.1v-3.5h-5.1v-4.5h5.4v-3.5H143.6z
		 M156.9,63.6h7.3c1.5,0,3.2,0,4.2-1.7c0.7-1.2,0.7-2.7,0.7-3.7c0-1.8-0.1-2.5-0.4-3.2c-0.5-1.3-1.6-1.6-2.5-1.9
		c2.5-0.9,2.7-2,2.7-4.9c0-1.6-0.3-2.8-1.5-3.6c-1.2-0.8-2.6-0.8-4-0.8h-6.5V63.6z M163.3,47.3c1.2,0,1.5,0.5,1.5,2.1
		c0,1.5-0.1,2.2-1.3,2.2h-2v-4.2H163.3z M163.3,55c1.5,0,1.5,0.7,1.5,2.6c0,1.3,0,2.4-1.5,2.4h-1.8v-5H163.3z M172.6,43.7v19.8h10.2
		v-3.5h-5.4v-4.8h5.1v-3.5h-5.1v-4.5h5.4v-3.5H172.6z M185.9,63.6h4.5v-8.4c2.7,0,3.1,0,3.1,2.2c0,0.6-0.1,2.9-0.1,3.4
		c0,1.6,0.3,2.2,0.7,2.9h4.4c-0.4-0.5-0.7-0.9-0.7-2.2v-4.2c0-2.4-0.2-3.4-2.6-4c1.5-0.8,2.5-1.5,2.5-4.4c0-1.4-0.1-2.8-1-3.8
		c-1.1-1.2-2.9-1.3-4.2-1.3h-6.7V63.6z M191.8,47.2c1.4,0,1.7,0.3,1.7,2c0,1.5-0.1,2.2-1,2.4c-0.2,0.1-0.6,0.1-2.1,0.1v-4.5H191.8z"
		/>
</g>
</svg>
